<svg width="36" height="16" viewBox="0 0 36 16" xmlns="http://www.w3.org/2000/svg" xmlns:xlink="http://www.w3.org/1999/xlink">
    <defs>
        <path id="klqk7tz4ua" d="M0 0h21.042v15.997H0z"/>
        <path id="cys0zv2wjc" d="M.624 0h16.94v16H.624z"/>
    </defs>
    <g fill="none" fill-rule="evenodd">
        <g>
            <mask id="pvnmry9n9b" fill="#fff">
                <use xlink:href="#klqk7tz4ua"/>
            </mask>
            <path d="M18.14 7.998V8h2.902v-.002C21.042 3.58 17.36 0 12.816 0a8.267 8.267 0 0 0-7.01 3.822V0H2.904L0 2.823h2.903v13.174h2.904v-3.824A7.788 7.788 0 0 1 4.587 8c0-1.664.64-3.18 1.686-4.34l.08-.084a6.17 6.17 0 0 1 .557-.535c.175-.148.36-.29.55-.423.017-.01.03-.022.047-.033a6.83 6.83 0 0 1 .669-.398l.029-.014c.207-.107.424-.202.644-.287.067-.027.133-.049.201-.072.17-.06.34-.114.516-.16a6.882 6.882 0 0 1 .78-.16c.077-.012.154-.025.232-.035.259-.028.519-.047.784-.047.394 0 .779.037 1.154.1.049.01.1.011.147.022.065.012.128.03.19.044a6.877 6.877 0 0 1 1.597.556l.006.003c.182.091.361.19.534.298l.043.031c.159.1.315.203.464.316l.038.03c.15.114.294.233.434.358.013.01.023.024.034.034.139.126.274.256.4.394.014.016.026.033.04.048.123.135.24.273.351.418.047.061.088.128.134.191.07.101.146.201.214.306.068.11.126.225.19.336.035.065.075.128.108.195.064.126.12.256.174.386.026.058.055.113.077.172.072.185.136.373.191.566l.005.018c.115.398.19.81.226 1.235.018.174.028.35.028.53" fill="#686868" mask="url(#pvnmry9n9b)"/>
        </g>
        <g transform="translate(17.486)">
            <mask id="8mqhdpmfsd" fill="#fff">
                <use xlink:href="#cys0zv2wjc"/>
            </mask>
            <path d="M11.276 10.35H6.434l4.842-4.701v4.702zm2.9 0V0h-.483L.624 12.705h10.652V16h2.9v-3.295h3.388V10.35h-3.388z" fill="#686868" mask="url(#8mqhdpmfsd)"/>
        </g>
        <path d="m18.11 12.703 2.62-2.547a7.76 7.76 0 0 0 .311-2.158h-2.9c0 2.857-2.382 5.176-5.325 5.176-2.944 0-5.323-2.319-5.323-5.176s2.379-5.176 5.323-5.176c2.756 0 5.021 2.035 5.296 4.643-.279-3.386-3.19-6.053-6.75-6.053-3.745 0-6.775 2.95-6.775 6.586 0 4.417 3.683 8 8.229 8a8.283 8.283 0 0 0 6.643-3.295h-1.35z" fill="#FF7800"/>
    </g>
</svg>
